<svg class="svg3" xmlns="http://www.w3.org/2000/svg" width="108" height="100.054" viewBox="0 0 90 111.414"><g transform="translate(-1061.711 -987.975)"><g transform="translate(1061.711 987.975)"><g transform="translate(64.333 86.114)"><path class="bac-svg3" d="M1190.1,1153.676l-4.157,12.686a8.8,8.8,0,0,0,5.624,11.106l.78.255a8.8,8.8,0,0,0,11.106-5.624l4.158-12.687Z" transform="translate(-1185.5 -1153.676)"></path></g><g transform="translate(7.326 35.812)"><path class="bac-svg3" d="M1075.807,1056.884v45.134h53.207v-45.134Zm33.6,34.779s-12.894-1.68-16.521-7.962,1.7-17.7,1.7-17.7,12.557,1.1,16.183,7.378S1109.4,1091.663,1109.4,1091.663Z" transform="translate(-1075.807 -1056.884)"></path></g><g transform="translate(0 0)"><path class="border-svg3" d="M1107.812,1003.052v-1.413h.513a1.607,1.607,0,0,0,1.553-1.521c0-.061.006-.124.006-.188v-6.677c0-2.911-2.107-5.279-4.7-5.279H1077.02c-2.59,0-4.7,2.368-4.7,5.279v6.677c0,.064,0,.126.008.211a1.553,1.553,0,0,0,1.552,1.5h.512v1.489a13.4,13.4,0,0,0-8.563,3.7c-4.164,4.185-4.132,10.574-4.12,12.979v61.8c0,3.938,2.812,7.142,6.269,7.142h46.246c3.457,0,6.269-3.2,6.269-7.142v-61.673c0-2.557.015-9.35-4.2-13.567A11.92,11.92,0,0,0,1107.812,1003.052Zm-22.441-1.413a1.553,1.553,0,0,0,0-3.106h-9.943v-5.279c0-1.178.73-2.173,1.592-2.173h28.167c.862,0,1.591,1,1.591,2.173v5.279h-13.953a1.553,1.553,0,0,0,0,3.106h11.882v1.4H1077.5v-1.4Zm-17.338,7.375c1.9-1.906,4.7-2.872,8.342-2.872h31.034a9.079,9.079,0,0,1,6.695,2.418c2.636,2.64,3.159,6.9,3.262,9.637h-52.532C1064.917,1015.6,1065.4,1011.658,1068.034,1009.014Zm-3.215,62.4h6.159a1.553,1.553,0,1,0,0-3.106h-6.159v-42.445h38.84a1.553,1.553,0,0,0,0-3.106h-38.84V1021.3h52.573v1.452h-6.279a1.553,1.553,0,1,0,0,3.106h6.279v42.445h-38.96a1.553,1.553,0,1,0,0,3.106h38.96v1.76h-52.573Zm49.409,14.231h-46.246c-1.714,0-3.163-1.849-3.163-4.037v-5.328h52.573v5.328C1117.391,1083.794,1115.942,1085.643,1114.228,1085.643Z" transform="translate(-1061.711 -987.975)"></path><path class="border-svg3" d="M1206.216,1119.121a10.286,10.286,0,0,0-6.014-5.162l-.779-.255a10.346,10.346,0,0,0-13.066,6.616l-8.313,25.371a10.369,10.369,0,0,0,6.617,13.067l.778.254a10.347,10.347,0,0,0,13.065-6.616l8.314-25.371A10.287,10.287,0,0,0,1206.216,1119.121Zm-10.663,32.307a7.24,7.24,0,0,1-9.148,4.631l-.778-.255a7.259,7.259,0,0,1-4.633-9.148l3.674-11.21,14.558,4.77Zm8.314-25.372-3.674,11.21-14.559-4.771,3.673-11.21a7.241,7.241,0,0,1,9.148-4.632l.779.255a7.253,7.253,0,0,1,4.632,9.147Z" transform="translate(-1117.338 -1048.114)"></path><path class="border-svg3" d="M1114.014,1101.783a1.571,1.571,0,0,0,.2.013h.009a1.509,1.509,0,0,0,.355-.046c.018,0,.035-.007.053-.012a1.569,1.569,0,0,0,.336-.139c.008,0,.018-.006.026-.011s.017-.013.026-.018a1.518,1.518,0,0,0,.229-.165h0a1.563,1.563,0,0,0,.193-.208c.012-.016.024-.033.035-.05a1.6,1.6,0,0,0,.117-.191c.009-.018.019-.036.028-.056s.022-.04.031-.06c.216-.519,5.241-12.794,1.275-19.661-3.984-6.9-16.847-8.1-17.392-8.148a1.554,1.554,0,0,0-1.542.89c-.231.5-5.625,12.235-1.641,19.136C1100.314,1099.925,1113.457,1101.71,1114.014,1101.783Zm-13.65-25.533c3.864.529,11.49,2.358,13.871,6.482,2.027,3.509.872,9.677-.369,13.8l-7.736-13.4a1.553,1.553,0,1,0-2.69,1.552l7.739,13.405c-4.191-.986-10.109-3.07-12.14-6.587C1096.657,1087.38,1098.888,1079.861,1100.364,1076.25Z" transform="translate(-1077.645 -1028.825)"></path></g></g></g></svg>
