<svg class="svg4" xmlns="http://www.w3.org/2000/svg" width="108" height="85.254" viewBox="0 0 108 85.254"><g transform="translate(-162.345 -1421.617)"><g transform="translate(162.345 1421.617)"><g transform="translate(61.781 38.638)"><path class="bac-svg4" d="M337.3,1508.662c-2.509-.953-9.078-1.412-13.843,2.446-4.674-4.123-11.334-3.4-13.845-2.446-9.444,3.585-10.921,10.813-7.765,20.6,9.169,28.42,18.242,24.6,21.61,22.119,1.964,1.448,11.709,8.564,21.608-22.119C348.223,1519.475,346.745,1512.247,337.3,1508.662Z" transform="translate(-300.348 -1507.924)"></path></g><path class="border-svg4" d="M195,1496.572h-5.566a3.7,3.7,0,0,0-3.7,3.7v5.566a3.7,3.7,0,0,0,3.7,3.7H195a3.7,3.7,0,0,0,3.7-3.7v-5.566A3.7,3.7,0,0,0,195,1496.572Zm.853,9.262a.865.865,0,0,1-.853.853h-5.566a.864.864,0,0,1-.853-.853v-5.566a.864.864,0,0,1,.853-.853H195a.865.865,0,0,1,.853.853Z" transform="translate(-175.265 -1463.016)"></path><path class="border-svg4" d="M224.929,1458.094c5.507,0,9.986-4.2,9.986-9.366s-4.479-9.365-9.986-9.365H188.257c-5.506,0-9.986,4.2-9.986,9.365s4.48,9.366,9.986,9.366Zm-43.815-9.366c0-3.6,3.2-6.522,7.143-6.522h36.672c3.939,0,7.143,2.925,7.143,6.522s-3.2,6.523-7.143,6.523H188.257C184.318,1455.251,181.114,1452.325,181.114,1448.729Z" transform="translate(-171.141 -1431.418)"></path><path class="border-svg4" d="M195,1532.513h-5.566a3.7,3.7,0,0,0-3.7,3.7v5.566a3.7,3.7,0,0,0,3.7,3.7H195a3.7,3.7,0,0,0,3.7-3.7v-5.566A3.7,3.7,0,0,0,195,1532.513Zm.853,9.263a.865.865,0,0,1-.853.853h-5.566a.864.864,0,0,1-.853-.853v-5.566a.864.864,0,0,1,.853-.853H195a.864.864,0,0,1,.853.853Z" transform="translate(-175.265 -1482.867)"></path><path class="border-svg4" d="M231.321,1496.572h-5.566a3.7,3.7,0,0,0-3.7,3.7v5.566a3.7,3.7,0,0,0,3.7,3.7h5.566a3.7,3.7,0,0,0,3.7-3.7v-5.566A3.7,3.7,0,0,0,231.321,1496.572Zm.853,9.262a.864.864,0,0,1-.853.853h-5.566a.864.864,0,0,1-.853-.853v-5.566a.864.864,0,0,1,.853-.853h5.566a.864.864,0,0,1,.853.853Z" transform="translate(-195.326 -1463.016)"></path><path class="border-svg4" d="M231.322,1532.513h-5.564a3.7,3.7,0,0,0-3.7,3.7v5.566a3.7,3.7,0,0,0,3.7,3.7h5.564a3.7,3.7,0,0,0,3.7-3.7v-5.566A3.7,3.7,0,0,0,231.322,1532.513Zm.853,9.263a.864.864,0,0,1-.853.853h-5.564a.864.864,0,0,1-.853-.853v-5.566a.863.863,0,0,1,.853-.853h5.564a.864.864,0,0,1,.853.853Z" transform="translate(-195.327 -1482.867)"></path><path class="border-svg4" d="M200.791,1460.123a1.421,1.421,0,0,0-1.421-1.422h-2.844a1.422,1.422,0,0,0,0,2.844h2.844A1.421,1.421,0,0,0,200.791,1460.123Z" transform="translate(-180.439 -1442.099)"></path><path class="border-svg4" d="M218.121,1461.545h28.526a1.422,1.422,0,1,0,0-2.844H218.121a1.422,1.422,0,1,0,0,2.844Z" transform="translate(-192.366 -1442.099)"></path><path class="border-svg4" d="M256.533,1456.353a15.508,15.508,0,0,0-5.222-.8,19.438,19.438,0,0,0-6.485,1.109,16.968,16.968,0,0,0-.243-8.358,1.422,1.422,0,0,0-2.682.947c.926,2.624.394,6.189-.334,9.02-.125.081-.252.158-.377.245a15.233,15.233,0,0,0-6.338-2.721v-27.632a6.547,6.547,0,0,0-6.54-6.54H168.885a6.547,6.547,0,0,0-6.54,6.54v59.428a6.548,6.548,0,0,0,6.54,6.54h53.228c4.3,8.468,8.987,12.745,14.006,12.745a9.353,9.353,0,0,0,5.035-1.56,9.357,9.357,0,0,0,5.036,1.56h0c7.264,0,13.837-8.958,19.537-26.623C269.674,1468.015,266.667,1460.2,256.533,1456.353Zm-87.648,34.929a3.7,3.7,0,0,1-3.7-3.7v-59.428a3.7,3.7,0,0,1,3.7-3.7h59.428a3.7,3.7,0,0,1,3.7,3.7v27.322c-.226-.008-.448-.013-.66-.013a16.712,16.712,0,0,0-5.575.886c-.691.262-1.346.544-1.97.844a3.586,3.586,0,0,0-3.69-3.306h-6.446a3.7,3.7,0,0,0-3.7,3.7v23.5a3.7,3.7,0,0,0,3.7,3.7h4.468q1.282,3.528,2.62,6.493Zm47.7-11.034c.185.576.372,1.14.56,1.7h-3.472a.864.864,0,0,1-.853-.853v-23.5a.864.864,0,0,1,.853-.854h6.446c.488,0,.853.312.853.59v1.516C214.784,1463.181,213.35,1470.233,216.582,1480.248Zm46.439-.873c-2.971,9.207-9.107,24.653-16.831,24.653a7.081,7.081,0,0,1-4.192-1.593,1.423,1.423,0,0,0-1.688,0,7.078,7.078,0,0,1-4.191,1.593c-6.736,0-12.263-11.743-15.538-20.855a1.411,1.411,0,0,0-.194-.546c-.4-1.139-.772-2.235-1.1-3.251-3.482-10.793-1.17-17.074,7.5-20.364a13.819,13.819,0,0,1,4.566-.7,13.282,13.282,0,0,1,8.864,3.066,1.442,1.442,0,0,0,.331.212c-.266.741-.462,1.213-.5,1.3a5.482,5.482,0,0,1-1.529-.676,1.422,1.422,0,0,0-1.65,2.316,8.777,8.777,0,0,0,4.77,1.435,8.672,8.672,0,0,0,4.88-1.55,1.422,1.422,0,1,0-1.577-2.365,6.355,6.355,0,0,1-1.845.857c.255-.686.587-1.647.914-2.78a15.815,15.815,0,0,1,7.3-1.729,12.832,12.832,0,0,1,4.213.619C264.191,1462.3,266.5,1468.581,263.021,1479.374Z" transform="translate(-162.345 -1421.617)"></path><path class="border-svg4" d="M297.953,1551.234a1.422,1.422,0,0,0-2.711.859,54.531,54.531,0,0,0,5.363,11.918,1.422,1.422,0,1,0,2.428-1.48A51.686,51.686,0,0,1,297.953,1551.234Z" transform="translate(-235.71 -1492.658)"></path><path class="border-svg4" d="M293.734,1533.145c-.312-1.667-.41-2.678-.41-2.688a1.422,1.422,0,0,0-2.831.266c0,.046.108,1.138.447,2.946a1.422,1.422,0,0,0,2.795-.523Z" transform="translate(-233.12 -1481.02)"></path></g></g></svg>
